<?xml version="1.0" encoding="UTF-8"?>
<svg id="Layer_1" xmlns="http://www.w3.org/2000/svg" version="1.1" viewBox="0 0 670.9 313.1">
  <!-- Generator: Adobe Illustrator 29.1.0, SVG Export Plug-In . SVG Version: 2.1.0 Build 142)  -->
  <defs>
    <style>
      .st0 {
        fill: #03194e;
      }
    </style>
  </defs>
  <path class="st0" d="M497,44.3l10.4,2.8c7.7,2.1,13.7,8.1,15.8,15.8l2.8,10.4,2.8-10.4c2.1-7.7,8.1-13.7,15.8-15.8l10.4-2.8-10.4-2.8c-7.7-2.1-13.7-8.1-15.8-15.8l-2.8-10.4-2.8,10.4c-2.1,7.7-8.1,13.7-15.8,15.8l-10.4,2.8Z"/>
  <path class="st0" d="M550.2,59l-1.3-4.4-1.1,4.4c-.8,3.3-3.3,5.9-6.6,6.9l-4.4,1.3,4.4,1.1c3.3.8,5.9,3.3,6.9,6.6l1.3,4.4,1.1-4.4c.8-3.3,3.3-5.9,6.6-6.9l4.4-1.3-4.4-1.1c-3.3-.8-5.9-3.3-6.9-6.6Z"/>
  <path class="st0" d="M502,32.2l.7,2.5.6-2.6c.5-1.9,1.9-3.4,3.8-4l2.5-.7-2.6-.6c-1.9-.5-3.4-1.9-4-3.8l-.7-2.5-.6,2.6c-.5,1.9-1.9,3.4-3.8,4l-2.5.7,2.6.6c1.9.5,3.4,1.9,4,3.8Z"/>
  <path class="st0" d="M23.9,155.4v74.9c0,1.1.9,2.1,2.1,2.1h39.3c1.1,0,2.1-.9,2.1-2.1v-48.9c0-1.1.9-2.1,2.1-2.1h2.8c-18.5-7.8-34.7-16.1-48.3-23.9Z"/>
  <path class="st0" d="M149.6,119.6c0-18.2-7.2-34.7-19.7-45.3-9.1-7.7-20.9-12.5-51.3-12.5H26c-1.1,0-2.1.9-2.1,2.1v75.4c39.2,12.2,75.8,19.6,110,23.4,9.5-9.6,15.7-26.5,15.7-43ZM98.3,137.6c-5.5,2.5-12.1,2.5-16.1,2.5h-12.8c-1.1,0-2.1-.9-2.1-2.1v-34.8c0-1.1.9-2.1,2.1-2.1h11.2c4.6,0,11.5,0,17.2,2.5,6.8,3,10.1,8.4,10.1,16.8s-1.7,13.6-9.7,17.2Z"/>
  <path class="st0" d="M272.2,157.6c7.2-9.9,11.7-24.2,11.7-38.2s-7.2-34.7-19.7-45.3c-9.1-7.7-20.9-12.5-51.3-12.5h-52.6c-1.1,0-2.1.9-2.1,2.1v101.1c42.1,2.6,80.1-.5,114-7.2ZM201.6,102.9c0-1.1.9-2.1,2.1-2.1h11.2c4.6,0,11.5,0,17.2,2.5,6.8,3,10.1,8.4,10.1,16.8s-1.7,13.6-9.7,17.2c-5.5,2.5-12.1,2.5-16.1,2.5h-12.8c-1.1,0-2.1-.9-2.1-2.1v-34.8Z"/>
  <path class="st0" d="M201.6,230v-18c-15.1-1.4-29.6-3.5-43.4-6.3v24.3c0,1.1.9,2.1,2.1,2.1h39.3c1.1,0,2.1-.9,2.1-2.1Z"/>
  <path class="st0" d="M281.2,229.7l-7.6-17.3c-16,1.3-31.6,1.6-46.6,1.2l7.8,17.8c.3.7,1.1,1.2,1.9,1.2h42.7c1.5,0,2.5-1.5,1.9-2.9Z"/>
  <path class="st0" d="M338.4,64.3c0-1.2-1-2.1-2.1-2.1h-39.1c-1.2,0-2.1,1-2.1,2.1v88.1c15.4-4,29.9-8.7,43.4-13.9v-74.3Z"/>
  <path class="st0" d="M297.1,232.7h39.1c1.2,0,2.1-1,2.1-2.1v-28.5c-14.8,3.5-29.3,6.2-43.4,8.1v20.4c0,1.2,1,2.1,2.1,2.1Z"/>
  <path class="st0" d="M415.1,63.1c-.3-.9-1.1-1.5-2-1.5h-43.7c-1,0-1.9.8-2,1.8l-8.5,66.7c25.8-11.6,47.5-24.8,65.3-37.6l-9.1-29.4Z"/>
  <path class="st0" d="M489.6,144l8,86.4c.1,1.1,1,1.9,2.1,1.9h37.8c1.2,0,2.2-1.1,2-2.3l-14.9-116.3c-39,28.1-77,49.1-113.6,64.5l16.9,52.7c.3.9,1.1,1.4,2,1.4h25.9c.9,0,1.7-.6,2-1.4l28-87.3c.7-2.1,3.8-1.8,4,.4Z"/>
  <path class="st0" d="M348.1,232.3h37.8c1.1,0,2-.8,2.1-1.9l4.1-44.8c-14.3,5.3-28.3,9.8-42.1,13.4l-4,30.9c-.2,1.2.8,2.3,2,2.3Z"/>
  <path class="st0" d="M645.8,193.5h-53c-1.2,0-2.1-1-2.1-2.1v-23.6c0-1.2.9-2.1,2.1-2.1h38.5c1.2,0,2.2-1,2.2-2.2v-34.9c0-1.2-.9-2.1-2.1-2.1h-38.5c-1.2,0-2.1-1-2.1-2.1v-20.8c0-1.2,1-2.1,2.1-2.1h52.9c1.3,0,2.3-1.1,2.2-2.4l-3.4-34.9c-.1-1.1-1-1.9-2.1-1.9h-54.1c-.4.3-.8.7-1.1,1-13.4,12-26.7,23.1-39.9,33.5v133.7c0,1.3,1.1,2.4,2.4,2.4h92.8c1.1,0,2-.8,2.1-1.9l3.5-35c.1-1.2-.9-2.3-2.1-2.3Z"/>
  <polygon class="st0" points="40.4 290.5 47.1 290.5 47.1 274.4 66.4 274.4 66.4 268.1 47.1 268.1 47.1 257.2 68.9 257.2 68.9 250.9 40.4 250.9 40.4 290.5"/>
  <path class="st0" d="M84.1,260.2c-2.4,0-4.4.2-6.1.7-1.7.5-3.3,1.1-4.9,1.8l1.8,5.5c1.3-.6,2.6-1,3.9-1.4,1.3-.3,2.7-.5,4.4-.5s4.1.5,5.3,1.6c1.2,1.1,1.8,2.7,1.8,4.8v.7c-1.1-.4-2.3-.7-3.5-.9-1.2-.2-2.7-.3-4.5-.3s-3.2.2-4.7.6c-1.4.4-2.7,1-3.7,1.8s-1.9,1.8-2.4,3c-.6,1.2-.9,2.6-.9,4.2h0c0,1.6.3,3,.8,4.1.6,1.2,1.3,2.1,2.2,2.9.9.8,2,1.4,3.3,1.8,1.2.4,2.6.6,3.9.6,2.2,0,4.1-.4,5.6-1.2,1.5-.8,2.8-1.8,3.8-3.1v3.7h6.6v-17.7c0-4-1-7.1-3.1-9.3-2.1-2.2-5.3-3.3-9.6-3.3ZM90.4,279.7c0,.9-.2,1.8-.6,2.6-.4.8-.9,1.4-1.6,2-.7.5-1.5,1-2.4,1.3-.9.3-1.9.5-3,.5-1.6,0-2.9-.4-4-1.1-1.1-.8-1.6-1.8-1.6-3.3h0c0-1.7.6-2.8,1.8-3.7,1.2-.8,2.8-1.2,4.9-1.2s2.5.1,3.6.3c1.1.2,2.1.5,3,.8v1.9Z"/>
  <path class="st0" d="M120.9,284.2c-1.2.7-2.6,1-4.1,1s-2.4-.3-3.5-.8c-1.1-.5-2-1.2-2.7-2.1-.8-.9-1.4-1.9-1.8-3.1-.4-1.2-.6-2.4-.6-3.8s.2-2.6.6-3.7c.4-1.1,1-2.2,1.7-3,.7-.9,1.6-1.6,2.6-2.1,1-.5,2.1-.8,3.3-.8s3.1.3,4.2,1c1.1.7,2.2,1.6,3.3,2.7l4.1-4.6c-1.4-1.5-2.9-2.8-4.7-3.7-1.8-.9-4.1-1.4-6.8-1.4s-4.2.4-6,1.2c-1.8.8-3.4,2-4.8,3.4-1.3,1.4-2.4,3.1-3.1,5-.8,1.9-1.1,3.9-1.1,6.1s.4,4.2,1.1,6c.8,1.9,1.8,3.5,3.1,4.9,1.3,1.4,2.9,2.5,4.8,3.3,1.8.8,3.8,1.2,6,1.2s5.1-.5,7-1.6c1.8-1,3.4-2.4,4.9-4l-4-4.1c-1.1,1.1-2.2,2-3.4,2.7Z"/>
  <rect class="st0" x="132.8" y="249.6" width="7.2" height="6.5"/>
  <rect class="st0" x="133.1" y="260.7" width="6.7" height="29.9"/>
  <rect class="st0" x="147.1" y="249.2" width="6.7" height="41.3"/>
  <rect class="st0" x="161.1" y="260.7" width="6.7" height="29.9"/>
  <rect class="st0" x="160.8" y="249.6" width="7.2" height="6.5"/>
  <path class="st0" d="M182.8,252.5h-6.7v8.2h-3.7v5.8h3.7v15.8c0,1.7.2,3.1.6,4.2.4,1.1,1,2,1.7,2.7.8.7,1.6,1.2,2.7,1.5,1,.3,2.1.5,3.4.5s2.3-.1,3.3-.4c.9-.3,1.8-.6,2.7-1.1v-5.6c-1.3.7-2.7,1-4.1,1s-2-.3-2.6-.9c-.6-.6-.9-1.5-.9-2.9v-14.7h7.8v-5.8h-7.8v-8.2Z"/>
  <path class="st0" d="M208.1,282.8l-8.2-22.2h-7.1l12,29.8c-.5,1.3-1.1,2.2-1.8,2.7-.6.5-1.4.7-2.4.7s-1.4-.1-2-.3c-.6-.2-1.3-.5-1.9-.8l-2.2,5.1c1,.6,2.1,1,3.1,1.3,1.1.3,2.3.5,3.7.5s2.2-.2,3.1-.5c.9-.3,1.8-.8,2.5-1.4.8-.7,1.5-1.5,2.1-2.6.6-1.1,1.2-2.4,1.8-3.9l11.5-30.7h-6.9l-7.5,22.2Z"/>
  <path class="st0" d="M266,271.7c-1-.9-2.3-1.7-3.9-2.3-1.6-.6-3.3-1.2-5.4-1.8-1.8-.5-3.3-.9-4.5-1.3-1.2-.4-2.1-.9-2.8-1.4-.7-.5-1.1-1-1.4-1.6-.3-.6-.4-1.2-.4-2,0-1.3.5-2.4,1.6-3.4,1.1-.9,2.6-1.4,4.6-1.4s3.5.3,5.2,1c1.7.7,3.4,1.7,5.2,3l3.6-5.3c-2-1.6-4.1-2.9-6.3-3.7-2.2-.8-4.8-1.3-7.6-1.3s-3.6.3-5.3.8c-1.6.5-3,1.3-4.1,2.3-1.1,1-2,2.2-2.7,3.6-.7,1.4-1,3-1,4.7s.3,3.4.9,4.7c.6,1.3,1.4,2.4,2.5,3.3,1.1.9,2.4,1.7,4,2.3,1.6.6,3.4,1.2,5.5,1.6,1.8.5,3.2.9,4.4,1.3,1.1.4,2,.9,2.6,1.3.6.5,1.1,1,1.3,1.6.2.6.4,1.2.4,1.9,0,1.5-.6,2.8-1.8,3.7-1.2.9-2.9,1.4-5,1.4s-4.6-.4-6.5-1.3c-1.9-.9-3.8-2.2-5.6-3.8l-4.1,5c2.3,2.1,4.8,3.7,7.5,4.8,2.7,1,5.5,1.6,8.5,1.6s3.8-.3,5.5-.8c1.7-.5,3.1-1.3,4.3-2.3,1.2-1,2.1-2.3,2.8-3.7.7-1.5,1-3.1,1-5s-.3-3.1-.8-4.3c-.5-1.2-1.3-2.3-2.3-3.2Z"/>
  <path class="st0" d="M297.6,264.8c-1.1-1.5-2.6-2.6-4.3-3.5-1.7-.9-3.8-1.3-6-1.3s-4,.4-5.7,1.2c-1.7.8-3.2,2-4.5,3.4-1.3,1.4-2.2,3.1-2.9,4.9-.7,1.9-1,3.9-1,6.1s.4,4.5,1.1,6.4c.8,1.9,1.8,3.5,3.1,4.9,1.3,1.4,2.9,2.4,4.7,3.2,1.8.8,3.8,1.1,5.8,1.1s5-.5,6.9-1.5c1.9-1,3.6-2.4,5-4.1l-3.9-3.6c-1.2,1.2-2.4,2.1-3.6,2.7-1.2.6-2.6.9-4.3.9s-4-.7-5.5-2c-1.5-1.3-2.4-3.2-2.8-5.6h21.2c0-.3,0-.7,0-1,0-.3,0-.6,0-.9,0-2.1-.3-4.2-.9-6.2-.6-2-1.5-3.7-2.6-5.1ZM279.7,273.5c.3-2.3,1.1-4.2,2.4-5.7,1.3-1.5,3-2.2,5.1-2.2s2.1.2,2.9.6c.9.4,1.6,1,2.2,1.7.6.7,1.1,1.5,1.5,2.5.4,1,.6,2,.7,3.1h-14.8Z"/>
  <path class="st0" d="M316.7,262c-1.7,1.4-3,3.2-3.9,5.4v-6.7h-6.7v29.9h6.7v-11.4c0-2,.2-3.7.7-5.2.5-1.5,1.1-2.7,2-3.7.9-1,1.9-1.7,3.1-2.2,1.2-.5,2.5-.7,4-.7h.4v-7.2c-2.6-.1-4.7.5-6.4,1.9Z"/>
  <polygon class="st0" points="339.2 282.6 331.4 260.7 324.3 260.7 336.2 290.8 342.2 290.8 354 260.7 347 260.7 339.2 282.6"/>
  <rect class="st0" x="358.1" y="249.6" width="7.2" height="6.5"/>
  <rect class="st0" x="358.4" y="260.7" width="6.7" height="29.9"/>
  <path class="st0" d="M389.9,284.2c-1.2.7-2.6,1-4.1,1s-2.4-.3-3.5-.8c-1.1-.5-2-1.2-2.7-2.1-.8-.9-1.4-1.9-1.8-3.1-.4-1.2-.6-2.4-.6-3.8s.2-2.6.6-3.7c.4-1.1,1-2.2,1.7-3,.7-.9,1.6-1.6,2.6-2.1,1-.5,2.1-.8,3.3-.8s3.1.3,4.2,1c1.1.7,2.2,1.6,3.3,2.7l4.1-4.6c-1.4-1.5-2.9-2.8-4.7-3.7-1.8-.9-4.1-1.4-6.8-1.4s-4.2.4-6,1.2c-1.8.8-3.4,2-4.8,3.4-1.3,1.4-2.4,3.1-3.1,5-.8,1.9-1.1,3.9-1.1,6.1s.4,4.2,1.1,6c.8,1.9,1.8,3.5,3.1,4.9,1.3,1.4,2.9,2.5,4.8,3.3,1.8.8,3.8,1.2,6,1.2s5.1-.5,7-1.6c1.8-1,3.4-2.4,4.9-4l-4-4.1c-1.1,1.1-2.2,2-3.4,2.7Z"/>
  <path class="st0" d="M423.7,264.8c-1.1-1.5-2.6-2.6-4.3-3.5-1.7-.9-3.8-1.3-6-1.3s-4,.4-5.7,1.2c-1.7.8-3.2,2-4.5,3.4-1.3,1.4-2.2,3.1-2.9,4.9-.7,1.9-1,3.9-1,6.1s.4,4.5,1.1,6.4c.8,1.9,1.8,3.5,3.1,4.9,1.3,1.4,2.9,2.4,4.7,3.2,1.8.8,3.8,1.1,5.8,1.1s5-.5,6.9-1.5c1.9-1,3.6-2.4,5-4.1l-3.9-3.6c-1.2,1.2-2.4,2.1-3.6,2.7-1.2.6-2.6.9-4.3.9s-4-.7-5.5-2c-1.5-1.3-2.4-3.2-2.8-5.6h21.2c0-.3,0-.7,0-1,0-.3,0-.6,0-.9,0-2.1-.3-4.2-.9-6.2-.6-2-1.5-3.7-2.6-5.1ZM405.8,273.5c.3-2.3,1.1-4.2,2.4-5.7,1.3-1.5,3-2.2,5.1-2.2s2.1.2,2.9.6c.9.4,1.6,1,2.2,1.7.6.7,1.1,1.5,1.5,2.5.4,1,.6,2,.7,3.1h-14.8Z"/>
  <path class="st0" d="M449.9,275.7c-.9-.7-1.8-1.2-2.9-1.7-1.1-.5-2.1-.8-3.2-1.2-.8-.3-1.7-.5-2.4-.8-.8-.3-1.5-.6-2.1-.9-.6-.3-1.1-.7-1.5-1.1-.4-.4-.5-.9-.5-1.4h0c0-1,.4-1.7,1.1-2.3.7-.6,1.7-.8,3-.8s2.5.3,3.9.8c1.4.5,2.8,1.2,4.2,2.1l2.6-4.9c-1.5-1.1-3.2-1.9-5.1-2.5-1.9-.6-3.7-.9-5.5-.9s-2.8.2-4,.6c-1.3.4-2.4,1-3.3,1.8s-1.7,1.8-2.2,2.9c-.5,1.1-.8,2.4-.8,3.8h0c0,1.5.3,2.7.8,3.7.5,1,1.2,1.8,2.1,2.4.9.7,1.8,1.2,2.9,1.6,1.1.4,2.1.8,3.2,1.1.8.3,1.7.5,2.4.8.8.2,1.5.5,2.1.8.6.3,1.1.7,1.4,1.1.3.4.5.9.5,1.5h0c0,1.1-.4,1.9-1.2,2.5-.8.6-1.9.9-3.3.9s-3.1-.3-4.7-.9c-1.6-.6-3.2-1.5-4.8-2.7l-3,4.6c1.8,1.5,3.8,2.6,5.9,3.3,2.1.8,4.2,1.1,6.3,1.1s2.9-.2,4.2-.6c1.3-.4,2.5-1,3.4-1.8,1-.8,1.7-1.7,2.3-2.9.5-1.2.8-2.5.8-4.1h0c0-1.5-.3-2.6-.8-3.6-.5-.9-1.3-1.7-2.1-2.4Z"/>
  <path class="st0" d="M491.4,274.5h9.8v7.5c-1.2.9-2.5,1.6-4.1,2.2-1.6.5-3.3.8-5.1.8s-3.8-.4-5.3-1.1c-1.6-.7-3-1.7-4.1-3-1.1-1.3-2-2.8-2.7-4.5-.6-1.7-.9-3.6-.9-5.7s.3-3.7,1-5.4c.6-1.7,1.5-3.2,2.6-4.5,1.1-1.3,2.4-2.3,3.9-3,1.5-.7,3.1-1.1,4.9-1.1s2.3.1,3.3.3c1,.2,1.9.5,2.8.8.8.4,1.6.8,2.4,1.3.8.5,1.5,1.1,2.2,1.8l4.3-5.3c-1-.9-2-1.6-3-2.3-1-.7-2.1-1.2-3.3-1.7-1.2-.5-2.4-.8-3.8-1-1.4-.2-2.9-.4-4.6-.4-2.9,0-5.5.5-8,1.6-2.4,1.1-4.5,2.6-6.3,4.4-1.8,1.9-3.1,4-4.1,6.5-1,2.5-1.5,5.1-1.5,7.9s.5,5.6,1.4,8.1c.9,2.5,2.3,4.6,4,6.5,1.7,1.8,3.8,3.3,6.3,4.3,2.4,1,5.2,1.6,8.2,1.6s3.3-.2,4.8-.5c1.5-.3,3-.8,4.3-1.3,1.3-.6,2.6-1.2,3.7-2,1.1-.8,2.2-1.5,3.1-2.4v-16.6h-16.3v6.1Z"/>
  <path class="st0" d="M524.6,262c-1.7,1.4-3,3.2-3.9,5.4v-6.7h-6.7v29.9h6.7v-11.4c0-2,.2-3.7.7-5.2.5-1.5,1.1-2.7,2-3.7.9-1,1.9-1.7,3.1-2.2,1.2-.5,2.5-.7,4-.7h.4v-7.2c-2.6-.1-4.7.5-6.4,1.9Z"/>
  <path class="st0" d="M558.9,264.6c-1.4-1.4-3-2.5-4.9-3.3-1.9-.8-3.9-1.2-6.2-1.2s-4.3.4-6.2,1.2c-1.9.8-3.5,2-4.9,3.4s-2.4,3.1-3.2,5c-.8,1.9-1.2,3.9-1.2,6.1s.4,4.2,1.1,6c.8,1.9,1.8,3.5,3.2,4.9,1.4,1.4,3,2.5,4.9,3.3,1.9.8,3.9,1.2,6.1,1.2s4.3-.4,6.2-1.2c1.9-.8,3.5-2,4.9-3.4s2.4-3.1,3.2-4.9c.8-1.9,1.2-3.9,1.2-6.1s-.4-4.2-1.1-6.1c-.8-1.9-1.8-3.5-3.2-4.9ZM556,279.4c-.4,1.2-1,2.2-1.7,3-.8.9-1.7,1.6-2.7,2.1-1.1.5-2.3.8-3.6.8s-2.4-.3-3.5-.8c-1.1-.5-2-1.2-2.8-2.1-.8-.9-1.4-1.9-1.8-3.1-.4-1.2-.7-2.4-.7-3.8s.2-2.6.6-3.7c.4-1.1,1-2.2,1.7-3,.8-.9,1.7-1.6,2.7-2.1,1.1-.5,2.3-.8,3.6-.8s2.5.3,3.6.8c1.1.5,2,1.2,2.8,2.1.8.9,1.4,1.9,1.8,3.1.4,1.2.7,2.4.7,3.7s-.2,2.6-.6,3.7Z"/>
  <path class="st0" d="M587.3,277.5c0,2.3-.6,4.1-1.8,5.4-1.2,1.3-2.8,1.9-4.7,1.9s-3.5-.6-4.5-1.9c-1.1-1.3-1.6-3.1-1.6-5.4v-16.9h-6.7v19c0,3.5.9,6.3,2.7,8.4,1.8,2.1,4.3,3.1,7.6,3.1s4-.5,5.5-1.6c1.4-1,2.6-2.3,3.5-3.7v4.7h6.7v-29.9h-6.7v16.8Z"/>
  <path class="st0" d="M626.3,264.1c-1.3-1.3-2.7-2.3-4.3-3-1.6-.7-3.3-1-5-1s-4.3.5-5.8,1.6c-1.6,1.1-2.9,2.4-3.9,4v-5h-6.7v38.9h6.7v-13.7c1,1.4,2.3,2.6,3.8,3.7,1.6,1.1,3.5,1.6,5.9,1.6s3.4-.3,5-1c1.6-.7,3.1-1.7,4.3-3,1.3-1.3,2.3-3,3-4.9.7-1.9,1.1-4.1,1.1-6.6s-.4-4.7-1.1-6.6c-.8-1.9-1.8-3.6-3-4.9ZM623.2,279.6c-.4,1.2-1,2.2-1.8,3-.7.8-1.6,1.5-2.6,1.9-1,.5-2.1.7-3.2.7s-2.2-.2-3.2-.7c-1-.5-1.9-1.1-2.7-2-.8-.8-1.4-1.9-1.8-3-.5-1.2-.7-2.5-.7-4s.2-2.8.7-4c.5-1.2,1.1-2.2,1.8-3,.8-.8,1.7-1.5,2.7-2,1-.5,2.1-.7,3.2-.7s2.2.2,3.2.7c1,.5,1.9,1.1,2.6,1.9.7.8,1.3,1.8,1.8,3,.4,1.2.7,2.5.7,4s-.2,2.8-.7,4Z"/>
</svg>